<svg width="28" height="28" viewBox="0 0 28 28" fill="none" xmlns="http://www.w3.org/2000/svg">
<path d="M19.25 21.98L17.99 21.63L18.34 22.89C17.08 24.01 15.61 24.71 14 24.71C12.46 24.71 10.99 24.01 9.66002 22.89L10.01 21.63L8.75002 21.98C6.44002 19.46 4.90002 15.54 4.90002 12.53C4.90002 10.71 5.46003 8.96 6.44003 7.49L8.68002 8.11999L8.05002 5.74C9.66002 4.34 11.76 3.5 14.07 3.5C16.38 3.5 18.48 4.34 20.09 5.74L19.46 8.11999L21.7 7.49C22.68 8.96 23.24 10.64 23.24 12.53C23.1 15.54 21.63 19.39 19.25 21.98Z" stroke="#0F1E5C" stroke-width="0.7" stroke-miterlimit="10" stroke-linecap="round" stroke-linejoin="round"/>
<path d="M10.22 15.19C11.4958 15.19 12.53 14.5632 12.53 13.79C12.53 13.0168 11.4958 12.39 10.22 12.39C8.94427 12.39 7.91003 13.0168 7.91003 13.79C7.91003 14.5632 8.94427 15.19 10.22 15.19Z" stroke="#0F1E5C" stroke-width="0.7" stroke-miterlimit="10" stroke-linecap="round" stroke-linejoin="round"/>
<path d="M17.85 15.19C19.1258 15.19 20.16 14.5632 20.16 13.79C20.16 13.0168 19.1258 12.39 17.85 12.39C16.5743 12.39 15.54 13.0168 15.54 13.79C15.54 14.5632 16.5743 15.19 17.85 15.19Z" stroke="#0F1E5C" stroke-width="0.7" stroke-miterlimit="10" stroke-linecap="round" stroke-linejoin="round"/>
<path d="M14 20.72C15.1598 20.72 16.1 20.3126 16.1 19.81C16.1 19.3074 15.1598 18.9 14 18.9C12.8402 18.9 11.9 19.3074 11.9 19.81C11.9 20.3126 12.8402 20.72 14 20.72Z" stroke="#0F1E5C" stroke-width="0.7" stroke-miterlimit="10" stroke-linecap="round" stroke-linejoin="round"/>
</svg>
