<svg width="28" height="28" viewBox="0 0 28 28" fill="none" xmlns="http://www.w3.org/2000/svg">
<path d="M23.3333 9.33311H4.66667C4.02233 9.33311 3.5 9.85544 3.5 10.4998V12.8331C3.5 13.4774 4.02233 13.9998 4.66667 13.9998H23.3333C23.9777 13.9998 24.5 13.4774 24.5 12.8331V10.4998C24.5 9.85544 23.9777 9.33311 23.3333 9.33311Z" stroke="#0F1E5C" stroke-width="0.7" stroke-linecap="round" stroke-linejoin="round"/>
<path d="M14 9.33311V24.4998" stroke="#0F1E5C" stroke-width="0.7" stroke-linecap="round" stroke-linejoin="round"/>
<path d="M22.1668 14V22.1667C22.1668 22.7855 21.9209 23.379 21.4834 23.8166C21.0458 24.2542 20.4523 24.5 19.8334 24.5H8.16677C7.54793 24.5 6.95444 24.2542 6.51685 23.8166C6.07927 23.379 5.83344 22.7855 5.83344 22.1667V14" stroke="#0F1E5C" stroke-width="0.7" stroke-linecap="round" stroke-linejoin="round"/>
<path d="M8.7501 9.3335C7.97655 9.3335 7.23469 9.02621 6.68771 8.47923C6.14073 7.93225 5.83344 7.19038 5.83344 6.41683C5.83344 5.64329 6.14073 4.90142 6.68771 4.35444C7.23469 3.80746 7.97655 3.50017 8.7501 3.50017C9.87557 3.48056 10.9785 4.02664 11.915 5.06719C12.8515 6.10774 13.5781 7.59447 14.0001 9.3335C14.4221 7.59447 15.1487 6.10774 16.0852 5.06719C17.0217 4.02664 18.1246 3.48056 19.2501 3.50017C20.0237 3.50017 20.7655 3.80746 21.3125 4.35444C21.8595 4.90142 22.1668 5.64329 22.1668 6.41683C22.1668 7.19038 21.8595 7.93225 21.3125 8.47923C20.7655 9.02621 20.0237 9.3335 19.2501 9.3335" stroke="#0F1E5C" stroke-width="0.7" stroke-linecap="round" stroke-linejoin="round"/>
</svg>
