<svg width="28" height="28" viewBox="0 0 28 28" fill="none" xmlns="http://www.w3.org/2000/svg">
<path d="M19.5965 18.7338C19.5965 21.7538 16.7824 24.9798 13.8997 24.9798C11.0169 24.9798 8.27142 21.7538 8.27142 18.7338C8.27142 15.7138 13.076 12.6251 13.8997 12.6251C14.7233 12.6251 19.5965 15.7138 19.5965 18.7338Z" stroke="#333333" stroke-width="0.7" stroke-linecap="round" stroke-linejoin="round"/>
<path d="M8.27138 18.7338C8.27138 18.7338 3.80998 13.4488 6.41818 10.4287C9.02639 7.40871 15.2037 5.89869 15.2037 5.89869" stroke="#333333" stroke-width="0.7" stroke-linecap="round" stroke-linejoin="round"/>
<path d="M6.00635 11.0465C6.00635 11.0465 6.82999 2.46684 13.076 2.81003C16.2333 3.01594 17.3315 4.52595 17.7433 5.96733C17.8895 6.68124 17.8529 7.42051 17.6369 8.11649C17.4209 8.81247 17.0325 9.44257 16.5078 9.94827L13.8996 12.6251" stroke="#333333" stroke-width="0.7" stroke-linecap="round" stroke-linejoin="round"/>
<path d="M17.812 6.31052C17.812 6.31052 23.097 8.02644 23.097 12.076C23.0284 14.8901 19.5965 18.7338 19.5965 18.7338" stroke="#333333" stroke-width="0.7" stroke-linecap="round" stroke-linejoin="round"/>
</svg>
