<svg width="28" height="28" viewBox="0 0 28 28" fill="none" xmlns="http://www.w3.org/2000/svg">
<path d="M23.94 14.21C23.17 18.48 19.46 21.42 15.33 21.42C14.77 21.42 14.28 21.35 13.72 21.28C14.63 20.37 15.33 19.32 15.82 18.27C15.82 18.2 15.89 18.13 15.89 18.06C16.1 17.64 16.24 17.22 16.38 16.8C16.45 16.66 16.45 16.45 16.52 16.31C17.08 15.82 17.64 15.4 18.27 15.05C20.02 14.21 21.98 13.86 23.94 14.21Z" stroke="#333333" stroke-width="0.7" stroke-miterlimit="10" stroke-linecap="round" stroke-linejoin="round"/>
<path d="M13.72 21.28C13.16 21.35 12.67 21.42 12.11 21.42C7.91001 21.42 4.27 18.48 3.5 14.21C5.53 13.86 7.49 14.21 9.1 15.05C9.73 15.4 10.36 15.82 10.85 16.31C10.92 16.45 10.92 16.66 10.99 16.8C11.13 17.22 11.27 17.64 11.41 18.06C11.41 18.13 11.48 18.2 11.48 18.27C12.11 19.32 12.81 20.37 13.72 21.28Z" stroke="#333333" stroke-width="0.7" stroke-miterlimit="10" stroke-linecap="round" stroke-linejoin="round"/>
<path d="M16.8 13.79C16.8 14.63 16.73 15.47 16.52 16.31C16.45 16.45 16.45 16.66 16.38 16.8C16.24 17.22 16.1 17.64 15.89 18.06C15.89 18.13 15.82 18.2 15.82 18.27C15.33 19.39 14.56 20.37 13.72 21.28C12.81 20.37 12.11 19.32 11.62 18.27C11.62 18.2 11.55 18.13 11.55 18.06C11.34 17.64 11.2 17.22 11.13 16.8C11.06 16.66 11.06 16.45 10.99 16.31C10.5 14.35 10.64 12.25 11.27 10.36C11.76 8.89001 12.6 7.49 13.79 6.3C14.98 7.49 15.82 8.89001 16.31 10.36C16.66 11.48 16.8 12.6 16.8 13.79Z" stroke="#333333" stroke-width="0.7" stroke-miterlimit="10" stroke-linecap="round" stroke-linejoin="round"/>
<path d="M20.44 9.31001C20.44 11.48 19.67 13.51 18.34 15.05C17.71 15.4 17.08 15.82 16.59 16.31C16.8 15.47 16.87 14.63 16.87 13.79C16.87 12.6 16.66 11.48 16.31 10.36C17.5 9.66001 18.9 9.31001 20.44 9.31001Z" stroke="#333333" stroke-width="0.7" stroke-miterlimit="10" stroke-linecap="round" stroke-linejoin="round"/>
<path d="M10.92 16.31C10.36 15.82 9.80001 15.4 9.17001 15.05C7.84001 13.51 7.07001 11.48 7.07001 9.31001C8.54001 9.31001 10.01 9.66001 11.2 10.36C10.5 12.25 10.43 14.35 10.92 16.31Z" stroke="#333333" stroke-width="0.7" stroke-miterlimit="10" stroke-linecap="round" stroke-linejoin="round"/>
</svg>
