<svg width="28" height="28" viewBox="0 0 28 28" fill="none" xmlns="http://www.w3.org/2000/svg">
<path d="M23.6843 6.64723V13.4598C23.6843 14.6504 22.6921 15.6425 21.5016 15.6425C20.311 15.6425 19.3189 14.6504 19.3189 13.4598V6.64723H23.6843Z" stroke="#0F1E5C" stroke-width="0.7" stroke-miterlimit="10" stroke-linecap="round" stroke-linejoin="round"/>
<path d="M23.6843 13.4598V23.1827H17.467V14.3858C17.467 12.6 18.1945 11.0126 19.3851 9.88818V13.4598C19.3851 14.6504 20.3772 15.6425 21.5678 15.6425C22.6922 15.6425 23.6843 14.6504 23.6843 13.4598Z" stroke="#0F1E5C" stroke-width="0.7" stroke-miterlimit="10" stroke-linecap="round" stroke-linejoin="round"/>
<path d="M11.1835 7.3748V14.1874C11.1835 15.3779 10.1914 16.3701 9.00081 16.3701C7.81025 16.3701 6.81812 15.3779 6.81812 14.1874V7.3748H11.1835Z" stroke="#0F1E5C" stroke-width="0.7" stroke-miterlimit="10" stroke-linecap="round" stroke-linejoin="round"/>
<path d="M11.1835 14.1874V23.1827H4.90002V15.2457C4.90002 13.4598 5.62758 11.8724 6.81813 10.748V14.1874C6.81813 15.3779 7.81027 16.3701 9.00082 16.3701C10.1914 16.3701 11.1835 15.3779 11.1835 14.1874Z" stroke="#0F1E5C" stroke-width="0.7" stroke-miterlimit="10" stroke-linecap="round" stroke-linejoin="round"/>
<path d="M17.4669 4.2V11.0126C17.4669 12.2031 16.4748 13.1953 15.2843 13.1953C14.0937 13.1953 13.1016 12.2031 13.1016 11.0126V4.2H17.4669Z" stroke="#0F1E5C" stroke-width="0.7" stroke-miterlimit="10" stroke-linecap="round" stroke-linejoin="round"/>
<path d="M17.4669 10.9464V23.1827H11.1835V11.8724C11.1835 10.0866 11.911 8.49921 13.1016 7.3748V10.9464C13.1016 12.137 14.0937 13.1291 15.2843 13.1291C16.4748 13.1291 17.4669 12.2031 17.4669 10.9464Z" stroke="#0F1E5C" stroke-width="0.7" stroke-miterlimit="10" stroke-linecap="round" stroke-linejoin="round"/>
</svg>
